<svg width="18" height="23" viewBox="0 0 18 23" fill="none" xmlns="http://www.w3.org/2000/svg">
<path d="M2.27539 21V7.325L1.77539 4.8L2.27539 3.3H10.2754C11.4921 3.3 12.5837 3.49167 13.5504 3.875C14.5337 4.24167 15.3087 4.875 15.8754 5.775C16.4587 6.65833 16.7504 7.88333 16.7504 9.45C16.7504 11.0167 16.4421 12.2583 15.8254 13.175C15.2087 14.075 14.3504 14.7167 13.2504 15.1C12.1671 15.4833 10.9254 15.675 9.52539 15.675H6.77539V16.975L7.02539 19.475L6.77539 21H2.27539ZM6.77539 11.75H9.22539C10.0921 11.75 10.7837 11.5917 11.3004 11.275C11.8171 10.9417 12.0754 10.3333 12.0754 9.45C12.0754 8.83333 11.9504 8.375 11.7004 8.075C11.4504 7.75833 11.1004 7.55 10.6504 7.45C10.2171 7.35 9.70872 7.3 9.12539 7.3H6.52539L6.77539 11.75Z" fill="black"/>
</svg>
