<svg width="71" height="19" viewBox="0 0 71 19" fill="none" xmlns="http://www.w3.org/2000/svg">
<rect width="71" height="19" fill="white"/>
<path d="M3.43945 7.66016V11H2.31445V2.46875H5.46094C6.39453 2.46875 7.125 2.70703 7.65234 3.18359C8.18359 3.66016 8.44922 4.29102 8.44922 5.07617C8.44922 5.9043 8.18945 6.54297 7.66992 6.99219C7.1543 7.4375 6.41406 7.66016 5.44922 7.66016H3.43945ZM3.43945 6.74023H5.46094C6.0625 6.74023 6.52344 6.59961 6.84375 6.31836C7.16406 6.0332 7.32422 5.62305 7.32422 5.08789C7.32422 4.58008 7.16406 4.17383 6.84375 3.86914C6.52344 3.56445 6.08398 3.40625 5.52539 3.39453H3.43945V6.74023ZM10.7988 5.42773C11.2793 4.83789 11.9043 4.54297 12.6738 4.54297C14.0137 4.54297 14.6895 5.29883 14.7012 6.81055V11H13.6172V6.80469C13.6133 6.34766 13.5078 6.00977 13.3008 5.79102C13.0977 5.57227 12.7793 5.46289 12.3457 5.46289C11.9941 5.46289 11.6855 5.55664 11.4199 5.74414C11.1543 5.93164 10.9473 6.17773 10.7988 6.48242V11H9.71484V2H10.7988V5.42773ZM16.0371 7.77148C16.0371 7.15039 16.1582 6.5918 16.4004 6.0957C16.6465 5.59961 16.9863 5.2168 17.4199 4.94727C17.8574 4.67773 18.3555 4.54297 18.9141 4.54297C19.7773 4.54297 20.4746 4.8418 21.0059 5.43945C21.541 6.03711 21.8086 6.83203 21.8086 7.82422V7.90039C21.8086 8.51758 21.6895 9.07227 21.4512 9.56445C21.2168 10.0527 20.8789 10.4336 20.4375 10.707C20 10.9805 19.4961 11.1172 18.9258 11.1172C18.0664 11.1172 17.3691 10.8184 16.834 10.2207C16.3027 9.62305 16.0371 8.83203 16.0371 7.84766V7.77148ZM17.127 7.90039C17.127 8.60352 17.2891 9.16797 17.6133 9.59375C17.9414 10.0195 18.3789 10.2324 18.9258 10.2324C19.4766 10.2324 19.9141 10.0176 20.2383 9.58789C20.5625 9.1543 20.7246 8.54883 20.7246 7.77148C20.7246 7.07617 20.5586 6.51367 20.2266 6.08398C19.8984 5.65039 19.4609 5.43359 18.9141 5.43359C18.3789 5.43359 17.9473 5.64648 17.6191 6.07227C17.291 6.49805 17.127 7.10742 17.127 7.90039ZM24.6387 3.125V4.66016H25.8223V5.49805H24.6387V9.42969C24.6387 9.68359 24.6914 9.875 24.7969 10.0039C24.9023 10.1289 25.082 10.1914 25.3359 10.1914C25.4609 10.1914 25.6328 10.168 25.8516 10.1211V11C25.5664 11.0781 25.2891 11.1172 25.0195 11.1172C24.5352 11.1172 24.1699 10.9707 23.9238 10.6777C23.6777 10.3848 23.5547 9.96875 23.5547 9.42969V5.49805H22.4004V4.66016H23.5547V3.125H24.6387ZM26.6895 7.77148C26.6895 7.15039 26.8105 6.5918 27.0527 6.0957C27.2988 5.59961 27.6387 5.2168 28.0723 4.94727C28.5098 4.67773 29.0078 4.54297 29.5664 4.54297C30.4297 4.54297 31.127 4.8418 31.6582 5.43945C32.1934 6.03711 32.4609 6.83203 32.4609 7.82422V7.90039C32.4609 8.51758 32.3418 9.07227 32.1035 9.56445C31.8691 10.0527 31.5312 10.4336 31.0898 10.707C30.6523 10.9805 30.1484 11.1172 29.5781 11.1172C28.7188 11.1172 28.0215 10.8184 27.4863 10.2207C26.9551 9.62305 26.6895 8.83203 26.6895 7.84766V7.77148ZM27.7793 7.90039C27.7793 8.60352 27.9414 9.16797 28.2656 9.59375C28.5938 10.0195 29.0312 10.2324 29.5781 10.2324C30.1289 10.2324 30.5664 10.0176 30.8906 9.58789C31.2148 9.1543 31.377 8.54883 31.377 7.77148C31.377 7.07617 31.2109 6.51367 30.8789 6.08398C30.5508 5.65039 30.1133 5.43359 29.5664 5.43359C29.0312 5.43359 28.5996 5.64648 28.2715 6.07227C27.9434 6.49805 27.7793 7.10742 27.7793 7.90039ZM37.5117 9.31836C37.5117 9.02539 37.4004 8.79883 37.1777 8.63867C36.959 8.47461 36.5742 8.33398 36.0234 8.2168C35.4766 8.09961 35.041 7.95898 34.7168 7.79492C34.3965 7.63086 34.1582 7.43555 34.002 7.20898C33.8496 6.98242 33.7734 6.71289 33.7734 6.40039C33.7734 5.88086 33.9922 5.44141 34.4297 5.08203C34.8711 4.72266 35.4336 4.54297 36.1172 4.54297C36.8359 4.54297 37.418 4.72852 37.8633 5.09961C38.3125 5.4707 38.5371 5.94531 38.5371 6.52344H37.4473C37.4473 6.22656 37.3203 5.9707 37.0664 5.75586C36.8164 5.54102 36.5 5.43359 36.1172 5.43359C35.7227 5.43359 35.4141 5.51953 35.1914 5.69141C34.9688 5.86328 34.8574 6.08789 34.8574 6.36523C34.8574 6.62695 34.9609 6.82422 35.168 6.95703C35.375 7.08984 35.748 7.2168 36.2871 7.33789C36.8301 7.45898 37.2695 7.60352 37.6055 7.77148C37.9414 7.93945 38.1895 8.14258 38.3496 8.38086C38.5137 8.61523 38.5957 8.90234 38.5957 9.24219C38.5957 9.80859 38.3691 10.2637 37.916 10.6074C37.4629 10.9473 36.875 11.1172 36.1523 11.1172C35.6445 11.1172 35.1953 11.0273 34.8047 10.8477C34.4141 10.668 34.1074 10.418 33.8848 10.0977C33.666 9.77344 33.5566 9.42383 33.5566 9.04883H34.6406C34.6602 9.41211 34.8047 9.70117 35.0742 9.91602C35.3477 10.127 35.707 10.2324 36.1523 10.2324C36.5625 10.2324 36.8906 10.1504 37.1367 9.98633C37.3867 9.81836 37.5117 9.5957 37.5117 9.31836ZM40.0312 10.4316C40.0312 10.2441 40.0859 10.0879 40.1953 9.96289C40.3086 9.83789 40.4766 9.77539 40.6992 9.77539C40.9219 9.77539 41.0898 9.83789 41.2031 9.96289C41.3203 10.0879 41.3789 10.2441 41.3789 10.4316C41.3789 10.6113 41.3203 10.7617 41.2031 10.8828C41.0898 11.0039 40.9219 11.0645 40.6992 11.0645C40.4766 11.0645 40.3086 11.0039 40.1953 10.8828C40.0859 10.7617 40.0312 10.6113 40.0312 10.4316ZM45.7148 10.2324C46.1016 10.2324 46.4395 10.1152 46.7285 9.88086C47.0176 9.64648 47.1777 9.35352 47.209 9.00195H48.2344C48.2148 9.36523 48.0898 9.71094 47.8594 10.0391C47.6289 10.3672 47.3203 10.6289 46.9336 10.8242C46.5508 11.0195 46.1445 11.1172 45.7148 11.1172C44.8516 11.1172 44.1641 10.8301 43.6523 10.2559C43.1445 9.67773 42.8906 8.88867 42.8906 7.88867V7.70703C42.8906 7.08984 43.0039 6.54102 43.2305 6.06055C43.457 5.58008 43.7812 5.20703 44.2031 4.94141C44.6289 4.67578 45.1309 4.54297 45.709 4.54297C46.4199 4.54297 47.0098 4.75586 47.4785 5.18164C47.9512 5.60742 48.2031 6.16016 48.2344 6.83984H47.209C47.1777 6.42969 47.0215 6.09375 46.7402 5.83203C46.4629 5.56641 46.1191 5.43359 45.709 5.43359C45.1582 5.43359 44.7305 5.63281 44.4258 6.03125C44.125 6.42578 43.9746 6.99805 43.9746 7.74805V7.95312C43.9746 8.68359 44.125 9.24609 44.4258 9.64062C44.7266 10.0352 45.1562 10.2324 45.7148 10.2324ZM49.166 7.77148C49.166 7.15039 49.2871 6.5918 49.5293 6.0957C49.7754 5.59961 50.1152 5.2168 50.5488 4.94727C50.9863 4.67773 51.4844 4.54297 52.043 4.54297C52.9062 4.54297 53.6035 4.8418 54.1348 5.43945C54.6699 6.03711 54.9375 6.83203 54.9375 7.82422V7.90039C54.9375 8.51758 54.8184 9.07227 54.5801 9.56445C54.3457 10.0527 54.0078 10.4336 53.5664 10.707C53.1289 10.9805 52.625 11.1172 52.0547 11.1172C51.1953 11.1172 50.498 10.8184 49.9629 10.2207C49.4316 9.62305 49.166 8.83203 49.166 7.84766V7.77148ZM50.2559 7.90039C50.2559 8.60352 50.418 9.16797 50.7422 9.59375C51.0703 10.0195 51.5078 10.2324 52.0547 10.2324C52.6055 10.2324 53.043 10.0176 53.3672 9.58789C53.6914 9.1543 53.8535 8.54883 53.8535 7.77148C53.8535 7.07617 53.6875 6.51367 53.3555 6.08398C53.0273 5.65039 52.5898 5.43359 52.043 5.43359C51.5078 5.43359 51.0762 5.64648 50.748 6.07227C50.4199 6.49805 50.2559 7.10742 50.2559 7.90039ZM57.3164 4.66016L57.3457 5.36328C57.8105 4.81641 58.4375 4.54297 59.2266 4.54297C60.1133 4.54297 60.7168 4.88281 61.0371 5.5625C61.248 5.25781 61.5215 5.01172 61.8574 4.82422C62.1973 4.63672 62.5977 4.54297 63.0586 4.54297C64.4492 4.54297 65.1562 5.2793 65.1797 6.75195V11H64.0957V6.81641C64.0957 6.36328 63.9922 6.02539 63.7852 5.80273C63.5781 5.57617 63.2305 5.46289 62.7422 5.46289C62.3398 5.46289 62.0059 5.58398 61.7402 5.82617C61.4746 6.06445 61.3203 6.38672 61.2773 6.79297V11H60.1875V6.8457C60.1875 5.92383 59.7363 5.46289 58.834 5.46289C58.123 5.46289 57.6367 5.76562 57.375 6.37109V11H56.291V4.66016H57.3164Z" fill="black"/>
<path d="M67.312 9.09863H66.6265V11H66.3467V9.09863H65.6626V8.86719H67.312V9.09863ZM67.9917 8.86719L68.689 10.6074L69.3862 8.86719H69.751V11H69.4697V10.1694L69.4961 9.27295L68.7959 11H68.5806L67.8818 9.27734L67.9097 10.1694V11H67.6284V8.86719H67.9917Z" fill="black"/>
<path d="M20.6523 15.1919C20.6523 15.757 20.5225 16.2116 20.2627 16.5557C20.0029 16.8975 19.6543 17.0684 19.2168 17.0684C18.7497 17.0684 18.3885 16.9032 18.1333 16.5728L18.1025 17H17.5215V11.75H18.1538V13.7085C18.409 13.3918 18.7611 13.2334 19.21 13.2334C19.6589 13.2334 20.0109 13.4032 20.2661 13.7427C20.5236 14.0822 20.6523 14.547 20.6523 15.1372V15.1919ZM20.02 15.1201C20.02 14.6895 19.9368 14.3568 19.7705 14.1221C19.6042 13.8874 19.3649 13.77 19.0527 13.77C18.6357 13.77 18.3361 13.9637 18.1538 14.3511V15.9507C18.3475 16.3381 18.6494 16.5317 19.0596 16.5317C19.3626 16.5317 19.5985 16.4144 19.7671 16.1797C19.9357 15.945 20.02 15.5918 20.02 15.1201ZM22.6211 16.0737L23.4824 13.3018H24.1592L22.6724 17.5708C22.4422 18.186 22.0765 18.4937 21.5752 18.4937L21.4556 18.4834L21.2197 18.439V17.9263L21.3906 17.9399C21.6048 17.9399 21.7712 17.8966 21.8896 17.8101C22.0104 17.7235 22.1095 17.5651 22.187 17.335L22.3271 16.959L21.0078 13.3018H21.6982L22.6211 16.0737ZM30.2363 16.3472C30.0677 16.5887 29.8319 16.7699 29.5288 16.8906C29.228 17.0091 28.8771 17.0684 28.4761 17.0684C28.0705 17.0684 27.7104 16.9738 27.396 16.7847C27.0815 16.5933 26.8377 16.3221 26.6646 15.9712C26.4937 15.6203 26.4059 15.2135 26.4014 14.751V14.3169C26.4014 13.5672 26.5757 12.9862 26.9243 12.5737C27.2752 12.1613 27.7674 11.9551 28.4009 11.9551C28.9204 11.9551 29.3385 12.0884 29.6553 12.355C29.972 12.6193 30.1657 12.9953 30.2363 13.4829H29.5801C29.457 12.8244 29.0651 12.4951 28.4043 12.4951C27.9645 12.4951 27.6307 12.6501 27.4028 12.96C27.1772 13.2676 27.0633 13.7142 27.061 14.2998V14.7065C27.061 15.2648 27.1886 15.7091 27.4438 16.0396C27.6991 16.3677 28.0443 16.5317 28.4795 16.5317C28.7256 16.5317 28.9409 16.5044 29.1255 16.4497C29.3101 16.395 29.4627 16.3027 29.5835 16.1729V15.0552H28.4316V14.522H30.2363V16.3472ZM32.769 17.0684C32.2677 17.0684 31.8599 16.9043 31.5454 16.5762C31.231 16.2458 31.0737 15.8049 31.0737 15.2534V15.1372C31.0737 14.7703 31.1432 14.4434 31.2822 14.1562C31.4235 13.8669 31.6195 13.6413 31.8701 13.4795C32.123 13.3154 32.3965 13.2334 32.6904 13.2334C33.1712 13.2334 33.5449 13.3918 33.8115 13.7085C34.0781 14.0252 34.2114 14.4787 34.2114 15.0688V15.332H31.7061C31.7152 15.6966 31.8211 15.9917 32.0239 16.2173C32.229 16.4406 32.4888 16.5522 32.8032 16.5522C33.0265 16.5522 33.2157 16.5067 33.3706 16.4155C33.5256 16.3244 33.6611 16.2036 33.7773 16.0532L34.1636 16.354C33.8537 16.8302 33.3888 17.0684 32.769 17.0684ZM32.6904 13.7529C32.4352 13.7529 32.221 13.8464 32.0479 14.0332C31.8747 14.2178 31.7676 14.4775 31.7266 14.8125H33.5791V14.7646C33.5609 14.4434 33.4743 14.195 33.3193 14.0195C33.1644 13.8418 32.9548 13.7529 32.6904 13.7529ZM35.8042 12.4062V13.3018H36.4946V13.7905H35.8042V16.084C35.8042 16.2321 35.835 16.3438 35.8965 16.4189C35.958 16.4919 36.0628 16.5283 36.2109 16.5283C36.2839 16.5283 36.3841 16.5146 36.5117 16.4873V17C36.3454 17.0456 36.1836 17.0684 36.0264 17.0684C35.7438 17.0684 35.5308 16.9829 35.3872 16.812C35.2437 16.6411 35.1719 16.3984 35.1719 16.084V13.7905H34.4985V13.3018H35.1719V12.4062H35.8042ZM38.0942 12.4062V13.3018H38.7847V13.7905H38.0942V16.084C38.0942 16.2321 38.125 16.3438 38.1865 16.4189C38.248 16.4919 38.3529 16.5283 38.501 16.5283C38.5739 16.5283 38.6742 16.5146 38.8018 16.4873V17C38.6354 17.0456 38.4736 17.0684 38.3164 17.0684C38.0339 17.0684 37.8208 16.9829 37.6772 16.812C37.5337 16.6411 37.4619 16.3984 37.4619 16.084V13.7905H36.7886V13.3018H37.4619V12.4062H38.0942ZM40.7363 16.0737L41.5977 13.3018H42.2744L40.7876 17.5708C40.5575 18.186 40.1917 18.4937 39.6904 18.4937L39.5708 18.4834L39.335 18.439V17.9263L39.5059 17.9399C39.7201 17.9399 39.8864 17.8966 40.0049 17.8101C40.1257 17.7235 40.2248 17.5651 40.3022 17.335L40.4424 16.959L39.123 13.3018H39.8135L40.7363 16.0737ZM45.2651 17H44.6328V13.3018H45.2651V17ZM44.5815 12.3208C44.5815 12.2183 44.6123 12.1317 44.6738 12.061C44.7376 11.9904 44.8311 11.9551 44.9541 11.9551C45.0771 11.9551 45.1706 11.9904 45.2344 12.061C45.2982 12.1317 45.3301 12.2183 45.3301 12.3208C45.3301 12.4233 45.2982 12.5088 45.2344 12.5771C45.1706 12.6455 45.0771 12.6797 44.9541 12.6797C44.8311 12.6797 44.7376 12.6455 44.6738 12.5771C44.6123 12.5088 44.5815 12.4233 44.5815 12.3208ZM46.875 13.3018L46.8921 13.7119C47.1632 13.3929 47.529 13.2334 47.9893 13.2334C48.5065 13.2334 48.8586 13.4316 49.0454 13.8281C49.1685 13.6504 49.328 13.5068 49.5239 13.3975C49.7222 13.2881 49.9557 13.2334 50.2246 13.2334C51.0358 13.2334 51.4482 13.6629 51.4619 14.522V17H50.8296V14.5596C50.8296 14.2952 50.7692 14.0981 50.6484 13.9683C50.5277 13.8361 50.3249 13.77 50.04 13.77C49.8053 13.77 49.6105 13.8407 49.4556 13.9819C49.3006 14.1209 49.2106 14.3089 49.1855 14.5459V17H48.5498V14.5767C48.5498 14.0389 48.2866 13.77 47.7603 13.77C47.3455 13.77 47.0618 13.9466 46.9092 14.2998V17H46.2769V13.3018H46.875ZM54.7021 17C54.6657 16.9271 54.6361 16.7972 54.6133 16.6104C54.3193 16.9157 53.9684 17.0684 53.5605 17.0684C53.196 17.0684 52.8963 16.9658 52.6616 16.7607C52.4292 16.5534 52.313 16.2913 52.313 15.9746C52.313 15.5895 52.4588 15.291 52.7505 15.0791C53.0444 14.8649 53.4569 14.7578 53.9878 14.7578H54.603V14.4673C54.603 14.2463 54.5369 14.0708 54.4048 13.9409C54.2726 13.8088 54.0778 13.7427 53.8203 13.7427C53.5947 13.7427 53.4056 13.7996 53.2529 13.9136C53.1003 14.0275 53.0239 14.1654 53.0239 14.3271H52.3882C52.3882 14.1426 52.4531 13.9648 52.583 13.7939C52.7152 13.6208 52.8929 13.484 53.1162 13.3838C53.3418 13.2835 53.589 13.2334 53.8579 13.2334C54.284 13.2334 54.6178 13.3405 54.8594 13.5547C55.1009 13.7666 55.2262 14.0594 55.2354 14.4331V16.1353C55.2354 16.4748 55.2786 16.7448 55.3652 16.9453V17H54.7021ZM53.6528 16.5181C53.8511 16.5181 54.0391 16.4668 54.2168 16.3643C54.3945 16.2617 54.5233 16.1284 54.603 15.9644V15.2056H54.1074C53.3327 15.2056 52.9453 15.4323 52.9453 15.8857C52.9453 16.084 53.0114 16.2389 53.1436 16.3506C53.2757 16.4622 53.4455 16.5181 53.6528 16.5181ZM56.0762 15.1201C56.0762 14.5436 56.2095 14.0856 56.4761 13.7461C56.7427 13.4043 57.0959 13.2334 57.5356 13.2334C57.9868 13.2334 58.3389 13.3929 58.5918 13.7119L58.6226 13.3018H59.2002V16.9111C59.2002 17.3896 59.0578 17.7668 58.7729 18.0425C58.4904 18.3182 58.1099 18.4561 57.6313 18.4561C57.3647 18.4561 57.1038 18.3991 56.8486 18.2852C56.5934 18.1712 56.3986 18.0151 56.2642 17.8169L56.5923 17.4375C56.8634 17.7725 57.195 17.9399 57.5869 17.9399C57.8945 17.9399 58.1338 17.8534 58.3047 17.6802C58.4779 17.507 58.5645 17.2632 58.5645 16.9487V16.6309C58.3115 16.9225 57.9663 17.0684 57.5288 17.0684C57.0959 17.0684 56.745 16.894 56.4761 16.5454C56.2095 16.1968 56.0762 15.7217 56.0762 15.1201ZM56.7119 15.1919C56.7119 15.6089 56.7974 15.937 56.9683 16.1763C57.1392 16.4132 57.3784 16.5317 57.686 16.5317C58.0848 16.5317 58.3776 16.3506 58.5645 15.9883V14.2998C58.3708 13.9466 58.0802 13.77 57.6929 13.77C57.3853 13.77 57.1449 13.8896 56.9717 14.1289C56.7985 14.3682 56.7119 14.7225 56.7119 15.1919ZM61.6919 17.0684C61.1906 17.0684 60.7827 16.9043 60.4683 16.5762C60.1538 16.2458 59.9966 15.8049 59.9966 15.2534V15.1372C59.9966 14.7703 60.0661 14.4434 60.2051 14.1562C60.3464 13.8669 60.5423 13.6413 60.793 13.4795C61.0459 13.3154 61.3193 13.2334 61.6133 13.2334C62.0941 13.2334 62.4678 13.3918 62.7344 13.7085C63.001 14.0252 63.1343 14.4787 63.1343 15.0688V15.332H60.6289C60.638 15.6966 60.744 15.9917 60.9468 16.2173C61.1519 16.4406 61.4116 16.5522 61.7261 16.5522C61.9494 16.5522 62.1385 16.5067 62.2935 16.4155C62.4484 16.3244 62.584 16.2036 62.7002 16.0532L63.0864 16.354C62.7765 16.8302 62.3117 17.0684 61.6919 17.0684ZM61.6133 13.7529C61.3581 13.7529 61.1439 13.8464 60.9707 14.0332C60.7975 14.2178 60.6904 14.4775 60.6494 14.8125H62.502V14.7646C62.4837 14.4434 62.3971 14.195 62.2422 14.0195C62.0872 13.8418 61.8776 13.7529 61.6133 13.7529ZM66.0225 16.019C66.0225 15.8481 65.9575 15.716 65.8276 15.6226C65.7 15.5269 65.4756 15.4448 65.1543 15.3765C64.8353 15.3081 64.5812 15.2261 64.3921 15.1304C64.2052 15.0347 64.0662 14.9207 63.9751 14.7886C63.8862 14.6564 63.8418 14.4992 63.8418 14.3169C63.8418 14.0138 63.9694 13.7575 64.2246 13.5479C64.4821 13.3382 64.8102 13.2334 65.209 13.2334C65.6283 13.2334 65.9678 13.3416 66.2275 13.5581C66.4896 13.7746 66.6206 14.0514 66.6206 14.3887H65.9849C65.9849 14.2155 65.9108 14.0662 65.7627 13.9409C65.6169 13.8156 65.4323 13.7529 65.209 13.7529C64.9788 13.7529 64.7988 13.8031 64.6689 13.9033C64.5391 14.0036 64.4741 14.1346 64.4741 14.2964C64.4741 14.4491 64.5345 14.5641 64.6553 14.6416C64.776 14.7191 64.9937 14.7931 65.3081 14.8638C65.6248 14.9344 65.8812 15.0187 66.0771 15.1167C66.2731 15.2147 66.4178 15.3332 66.5112 15.4722C66.6069 15.6089 66.6548 15.7764 66.6548 15.9746C66.6548 16.305 66.5226 16.5705 66.2583 16.771C65.994 16.9692 65.651 17.0684 65.2295 17.0684C64.9333 17.0684 64.6712 17.016 64.4434 16.9111C64.2155 16.8063 64.0366 16.6605 63.9067 16.4736C63.7791 16.2845 63.7153 16.0806 63.7153 15.8618H64.3477C64.359 16.0737 64.4434 16.2424 64.6006 16.3677C64.7601 16.4907 64.9697 16.5522 65.2295 16.5522C65.4688 16.5522 65.6602 16.5044 65.8037 16.4087C65.9495 16.3107 66.0225 16.1808 66.0225 16.019Z" fill="black"/>
</svg>
