<svg width="88" height="23" viewBox="0 0 88 23" fill="none" xmlns="http://www.w3.org/2000/svg">
<rect x="15" y="4" width="71" height="19" fill="#E5E5E5"/>
<path d="M2.79932 9.8252V14H1.39307V3.33594H5.32617C6.49316 3.33594 7.40625 3.63379 8.06543 4.22949C8.72949 4.8252 9.06152 5.61377 9.06152 6.59521C9.06152 7.63037 8.73682 8.42871 8.0874 8.99023C7.44287 9.54688 6.51758 9.8252 5.31152 9.8252H2.79932ZM2.79932 8.67529H5.32617C6.07812 8.67529 6.6543 8.49951 7.05469 8.14795C7.45508 7.7915 7.65527 7.27881 7.65527 6.60986C7.65527 5.9751 7.45508 5.46729 7.05469 5.08643C6.6543 4.70557 6.10498 4.50781 5.40674 4.49316H2.79932V8.67529ZM11.9985 7.03467C12.5991 6.29736 13.3804 5.92871 14.3423 5.92871C16.0171 5.92871 16.8618 6.87354 16.8765 8.76318V14H15.5215V8.75586C15.5166 8.18457 15.3848 7.76221 15.126 7.48877C14.8721 7.21533 14.4741 7.07861 13.9321 7.07861C13.4927 7.07861 13.1069 7.1958 12.7749 7.43018C12.4429 7.66455 12.1841 7.97217 11.9985 8.35303V14H10.6436V2.75H11.9985V7.03467ZM18.5464 9.96436C18.5464 9.18799 18.6978 8.48975 19.0005 7.86963C19.3081 7.24951 19.7329 6.771 20.2749 6.43408C20.8218 6.09717 21.4443 5.92871 22.1426 5.92871C23.2217 5.92871 24.0933 6.30225 24.7573 7.04932C25.4263 7.79639 25.7607 8.79004 25.7607 10.0303V10.1255C25.7607 10.897 25.6118 11.5903 25.314 12.2056C25.021 12.8159 24.5986 13.292 24.0469 13.6338C23.5 13.9756 22.8701 14.1465 22.1572 14.1465C21.083 14.1465 20.2114 13.7729 19.5425 13.0259C18.8784 12.2788 18.5464 11.29 18.5464 10.0596V9.96436ZM19.9087 10.1255C19.9087 11.0044 20.1113 11.71 20.5166 12.2422C20.9268 12.7744 21.4736 13.0405 22.1572 13.0405C22.8457 13.0405 23.3926 12.772 23.7979 12.2349C24.2031 11.6929 24.4058 10.936 24.4058 9.96436C24.4058 9.09521 24.1982 8.39209 23.7832 7.85498C23.373 7.31299 22.8262 7.04199 22.1426 7.04199C21.4736 7.04199 20.9341 7.30811 20.5239 7.84033C20.1138 8.37256 19.9087 9.13428 19.9087 10.1255ZM29.2983 4.15625V6.0752H30.7778V7.12256H29.2983V12.0371C29.2983 12.3545 29.3643 12.5938 29.4961 12.7549C29.6279 12.9111 29.8525 12.9893 30.1699 12.9893C30.3262 12.9893 30.541 12.96 30.8145 12.9014V14C30.458 14.0977 30.1113 14.1465 29.7744 14.1465C29.1689 14.1465 28.7124 13.9634 28.4048 13.5972C28.0972 13.231 27.9434 12.7109 27.9434 12.0371V7.12256H26.5005V6.0752H27.9434V4.15625H29.2983ZM31.8618 9.96436C31.8618 9.18799 32.0132 8.48975 32.3159 7.86963C32.6235 7.24951 33.0483 6.771 33.5903 6.43408C34.1372 6.09717 34.7598 5.92871 35.458 5.92871C36.5371 5.92871 37.4087 6.30225 38.0728 7.04932C38.7417 7.79639 39.0762 8.79004 39.0762 10.0303V10.1255C39.0762 10.897 38.9272 11.5903 38.6294 12.2056C38.3364 12.8159 37.9141 13.292 37.3623 13.6338C36.8154 13.9756 36.1855 14.1465 35.4727 14.1465C34.3984 14.1465 33.5269 13.7729 32.8579 13.0259C32.1938 12.2788 31.8618 11.29 31.8618 10.0596V9.96436ZM33.2241 10.1255C33.2241 11.0044 33.4268 11.71 33.832 12.2422C34.2422 12.7744 34.7891 13.0405 35.4727 13.0405C36.1611 13.0405 36.708 12.772 37.1133 12.2349C37.5186 11.6929 37.7212 10.936 37.7212 9.96436C37.7212 9.09521 37.5137 8.39209 37.0986 7.85498C36.6885 7.31299 36.1416 7.04199 35.458 7.04199C34.7891 7.04199 34.2495 7.30811 33.8394 7.84033C33.4292 8.37256 33.2241 9.13428 33.2241 10.1255ZM45.3896 11.8979C45.3896 11.5317 45.2505 11.2485 44.9722 11.0483C44.6987 10.8433 44.2178 10.6675 43.5293 10.521C42.8457 10.3745 42.3013 10.1987 41.896 9.99365C41.4956 9.78857 41.1978 9.54443 41.0024 9.26123C40.812 8.97803 40.7168 8.64111 40.7168 8.25049C40.7168 7.60107 40.9902 7.05176 41.5371 6.60254C42.0889 6.15332 42.792 5.92871 43.6465 5.92871C44.5449 5.92871 45.2725 6.16064 45.8291 6.62451C46.3906 7.08838 46.6714 7.68164 46.6714 8.4043H45.3091C45.3091 8.0332 45.1504 7.71338 44.833 7.44482C44.5205 7.17627 44.125 7.04199 43.6465 7.04199C43.1533 7.04199 42.7676 7.14941 42.4893 7.36426C42.2109 7.5791 42.0718 7.85986 42.0718 8.20654C42.0718 8.53369 42.2012 8.78027 42.46 8.94629C42.7188 9.1123 43.1851 9.271 43.8589 9.42236C44.5376 9.57373 45.0869 9.75439 45.5068 9.96436C45.9268 10.1743 46.2368 10.4282 46.437 10.7261C46.6421 11.019 46.7446 11.3779 46.7446 11.8027C46.7446 12.5107 46.4614 13.0796 45.895 13.5093C45.3286 13.9341 44.5938 14.1465 43.6904 14.1465C43.0557 14.1465 42.4941 14.0342 42.0059 13.8096C41.5176 13.585 41.1343 13.2725 40.856 12.8721C40.5825 12.4668 40.4458 12.0298 40.4458 11.561H41.8008C41.8252 12.0151 42.0059 12.3765 42.3428 12.645C42.6846 12.9087 43.1338 13.0405 43.6904 13.0405C44.2031 13.0405 44.6133 12.938 44.9209 12.7329C45.2334 12.5229 45.3896 12.2446 45.3896 11.8979ZM48.5391 13.2896C48.5391 13.0552 48.6074 12.8599 48.7441 12.7036C48.8857 12.5474 49.0957 12.4692 49.374 12.4692C49.6523 12.4692 49.8623 12.5474 50.0039 12.7036C50.1504 12.8599 50.2236 13.0552 50.2236 13.2896C50.2236 13.5142 50.1504 13.7021 50.0039 13.8535C49.8623 14.0049 49.6523 14.0806 49.374 14.0806C49.0957 14.0806 48.8857 14.0049 48.7441 13.8535C48.6074 13.7021 48.5391 13.5142 48.5391 13.2896ZM55.6436 13.0405C56.127 13.0405 56.5493 12.894 56.9106 12.6011C57.272 12.3081 57.4722 11.9419 57.5112 11.5024H58.793C58.7686 11.9565 58.6123 12.3887 58.3242 12.7988C58.0361 13.209 57.6504 13.5361 57.167 13.7803C56.6885 14.0244 56.1807 14.1465 55.6436 14.1465C54.5645 14.1465 53.7051 13.7876 53.0654 13.0698C52.4307 12.3472 52.1133 11.3608 52.1133 10.1108V9.88379C52.1133 9.1123 52.2549 8.42627 52.5381 7.82568C52.8213 7.2251 53.2266 6.75879 53.7539 6.42676C54.2861 6.09473 54.9136 5.92871 55.6362 5.92871C56.5249 5.92871 57.2622 6.19482 57.8481 6.72705C58.439 7.25928 58.7539 7.9502 58.793 8.7998H57.5112C57.4722 8.28711 57.2769 7.86719 56.9253 7.54004C56.5786 7.20801 56.1489 7.04199 55.6362 7.04199C54.9478 7.04199 54.4131 7.29102 54.0322 7.78906C53.6562 8.28223 53.4683 8.99756 53.4683 9.93506V10.1914C53.4683 11.1045 53.6562 11.8076 54.0322 12.3008C54.4082 12.7939 54.9453 13.0405 55.6436 13.0405ZM59.9575 9.96436C59.9575 9.18799 60.1089 8.48975 60.4116 7.86963C60.7192 7.24951 61.144 6.771 61.686 6.43408C62.2329 6.09717 62.8555 5.92871 63.5537 5.92871C64.6328 5.92871 65.5044 6.30225 66.1685 7.04932C66.8374 7.79639 67.1719 8.79004 67.1719 10.0303V10.1255C67.1719 10.897 67.0229 11.5903 66.7251 12.2056C66.4321 12.8159 66.0098 13.292 65.458 13.6338C64.9111 13.9756 64.2812 14.1465 63.5684 14.1465C62.4941 14.1465 61.6226 13.7729 60.9536 13.0259C60.2896 12.2788 59.9575 11.29 59.9575 10.0596V9.96436ZM61.3198 10.1255C61.3198 11.0044 61.5225 11.71 61.9277 12.2422C62.3379 12.7744 62.8848 13.0405 63.5684 13.0405C64.2568 13.0405 64.8037 12.772 65.209 12.2349C65.6143 11.6929 65.8169 10.936 65.8169 9.96436C65.8169 9.09521 65.6094 8.39209 65.1943 7.85498C64.7842 7.31299 64.2373 7.04199 63.5537 7.04199C62.8848 7.04199 62.3452 7.30811 61.9351 7.84033C61.5249 8.37256 61.3198 9.13428 61.3198 10.1255ZM70.1455 6.0752L70.1821 6.9541C70.7632 6.27051 71.5469 5.92871 72.5332 5.92871C73.6416 5.92871 74.396 6.35352 74.7964 7.20312C75.0601 6.82227 75.4019 6.51465 75.8218 6.28027C76.2466 6.0459 76.7471 5.92871 77.3232 5.92871C79.0615 5.92871 79.9453 6.84912 79.9746 8.68994V14H78.6196V8.77051C78.6196 8.2041 78.4902 7.78174 78.2314 7.50342C77.9727 7.22021 77.5381 7.07861 76.9277 7.07861C76.4248 7.07861 76.0073 7.22998 75.6753 7.53271C75.3433 7.83057 75.1504 8.2334 75.0967 8.74121V14H73.7344V8.80713C73.7344 7.65479 73.1704 7.07861 72.0425 7.07861C71.1538 7.07861 70.5459 7.45703 70.2188 8.21387V14H68.8638V6.0752H70.1455Z" fill="black"/>
<path d="M83.52 10.8311H82.3774V14H81.9111V10.8311H80.771V10.4453H83.52V10.8311ZM84.6528 10.4453L85.8149 13.3457L86.9771 10.4453H87.585V14H87.1162V12.6157L87.1602 11.1216L85.9932 14H85.6343L84.4697 11.1289L84.5161 12.6157V14H84.0474V10.4453H84.6528Z" fill="black"/>
<path d="M22.4102 18.6753C22.4102 19.4019 22.2432 19.9863 21.9092 20.4287C21.5752 20.8682 21.127 21.0879 20.5645 21.0879C19.9639 21.0879 19.4995 20.8755 19.1714 20.4507L19.1318 21H18.3848V14.25H19.1978V16.7681C19.5259 16.3608 19.9785 16.1572 20.5557 16.1572C21.1328 16.1572 21.5854 16.3755 21.9136 16.812C22.2446 17.2485 22.4102 17.8462 22.4102 18.605V18.6753ZM21.5972 18.583C21.5972 18.0293 21.4902 17.6016 21.2764 17.2998C21.0625 16.998 20.7549 16.8472 20.3535 16.8472C19.8174 16.8472 19.4321 17.0962 19.1978 17.5942V19.6509C19.4468 20.1489 19.835 20.3979 20.3623 20.3979C20.752 20.3979 21.0552 20.2471 21.272 19.9453C21.4888 19.6436 21.5972 19.1895 21.5972 18.583ZM24.9414 19.8091L26.0488 16.2451H26.9189L25.0073 21.7339C24.7114 22.5249 24.2412 22.9204 23.5967 22.9204L23.4429 22.9072L23.1396 22.8501V22.1909L23.3594 22.2085C23.6348 22.2085 23.8486 22.1528 24.001 22.0415C24.1562 21.9302 24.2837 21.7266 24.3833 21.4307L24.5635 20.9473L22.8672 16.2451H23.7549L24.9414 19.8091ZM34.7324 20.1606C34.5156 20.4712 34.2124 20.7041 33.8228 20.8594C33.436 21.0117 32.9849 21.0879 32.4692 21.0879C31.9478 21.0879 31.4849 20.9663 31.0806 20.7231C30.6763 20.4771 30.3628 20.1284 30.1401 19.6772C29.9204 19.2261 29.8076 18.7031 29.8018 18.1084V17.5503C29.8018 16.5864 30.0259 15.8394 30.4741 15.3091C30.9253 14.7788 31.5581 14.5137 32.3726 14.5137C33.0405 14.5137 33.5781 14.6851 33.9854 15.0278C34.3926 15.3677 34.6416 15.8511 34.7324 16.478H33.8887C33.7305 15.6313 33.2266 15.208 32.377 15.208C31.8115 15.208 31.3823 15.4072 31.0894 15.8057C30.7993 16.2012 30.6528 16.7754 30.6499 17.5283V18.0513C30.6499 18.769 30.814 19.3403 31.1421 19.7651C31.4702 20.187 31.9141 20.3979 32.4736 20.3979C32.79 20.3979 33.0669 20.3628 33.3042 20.2925C33.5415 20.2222 33.7378 20.1035 33.8931 19.9365V18.4995H32.4121V17.814H34.7324V20.1606ZM37.9888 21.0879C37.3442 21.0879 36.8198 20.877 36.4155 20.4551C36.0112 20.0303 35.8091 19.4634 35.8091 18.7544V18.605C35.8091 18.1333 35.8984 17.7129 36.0771 17.3438C36.2588 16.9717 36.5107 16.6816 36.833 16.4736C37.1582 16.2627 37.5098 16.1572 37.8877 16.1572C38.5059 16.1572 38.9863 16.3608 39.3291 16.7681C39.6719 17.1753 39.8433 17.7583 39.8433 18.5171V18.8555H36.6221C36.6338 19.3242 36.77 19.7036 37.0308 19.9937C37.2944 20.2808 37.6284 20.4243 38.0327 20.4243C38.3198 20.4243 38.563 20.3657 38.7622 20.2485C38.9614 20.1313 39.1357 19.9761 39.2852 19.7827L39.7817 20.1694C39.3833 20.7817 38.7856 21.0879 37.9888 21.0879ZM37.8877 16.8252C37.5596 16.8252 37.2842 16.9453 37.0615 17.1855C36.8389 17.4229 36.7012 17.7568 36.6484 18.1875H39.0303V18.126C39.0068 17.7129 38.8955 17.3936 38.6963 17.168C38.4971 16.9395 38.2275 16.8252 37.8877 16.8252ZM41.8911 15.0938V16.2451H42.7788V16.8735H41.8911V19.8223C41.8911 20.0127 41.9307 20.1562 42.0098 20.2529C42.0889 20.3467 42.2236 20.3936 42.4141 20.3936C42.5078 20.3936 42.6367 20.376 42.8008 20.3408V21C42.5869 21.0586 42.3789 21.0879 42.1768 21.0879C41.8135 21.0879 41.5396 20.978 41.355 20.7583C41.1704 20.5386 41.0781 20.2266 41.0781 19.8223V16.8735H40.2124V16.2451H41.0781V15.0938H41.8911ZM44.8354 15.0938V16.2451H45.7231V16.8735H44.8354V19.8223C44.8354 20.0127 44.875 20.1562 44.9541 20.2529C45.0332 20.3467 45.168 20.3936 45.3584 20.3936C45.4521 20.3936 45.5811 20.376 45.7451 20.3408V21C45.5312 21.0586 45.3232 21.0879 45.1211 21.0879C44.7578 21.0879 44.4839 20.978 44.2993 20.7583C44.1147 20.5386 44.0225 20.2266 44.0225 19.8223V16.8735H43.1567V16.2451H44.0225V15.0938H44.8354ZM48.2324 19.8091L49.3398 16.2451H50.21L48.2983 21.7339C48.0024 22.5249 47.5322 22.9204 46.8877 22.9204L46.7339 22.9072L46.4307 22.8501V22.1909L46.6504 22.2085C46.9258 22.2085 47.1396 22.1528 47.292 22.0415C47.4473 21.9302 47.5747 21.7266 47.6743 21.4307L47.8545 20.9473L46.1582 16.2451H47.0459L48.2324 19.8091ZM54.0552 21H53.2422V16.2451H54.0552V21ZM53.1763 14.9839C53.1763 14.8521 53.2158 14.7407 53.2949 14.6499C53.377 14.5591 53.4971 14.5137 53.6553 14.5137C53.8135 14.5137 53.9336 14.5591 54.0156 14.6499C54.0977 14.7407 54.1387 14.8521 54.1387 14.9839C54.1387 15.1157 54.0977 15.2256 54.0156 15.3135C53.9336 15.4014 53.8135 15.4453 53.6553 15.4453C53.4971 15.4453 53.377 15.4014 53.2949 15.3135C53.2158 15.2256 53.1763 15.1157 53.1763 14.9839ZM56.125 16.2451L56.147 16.7725C56.4956 16.3623 56.9658 16.1572 57.5576 16.1572C58.2227 16.1572 58.6753 16.4121 58.9155 16.9219C59.0737 16.6934 59.2788 16.5088 59.5308 16.3682C59.7856 16.2275 60.0859 16.1572 60.4316 16.1572C61.4746 16.1572 62.0049 16.7095 62.0225 17.814V21H61.2095V17.8623C61.2095 17.5225 61.1318 17.269 60.9766 17.1021C60.8213 16.9321 60.5605 16.8472 60.1943 16.8472C59.8926 16.8472 59.6421 16.938 59.4429 17.1196C59.2437 17.2983 59.1279 17.54 59.0957 17.8447V21H58.2783V17.8843C58.2783 17.1929 57.9399 16.8472 57.2632 16.8472C56.73 16.8472 56.3652 17.0742 56.1689 17.5283V21H55.356V16.2451H56.125ZM66.1885 21C66.1416 20.9062 66.1035 20.7393 66.0742 20.499C65.6963 20.8916 65.2451 21.0879 64.7207 21.0879C64.252 21.0879 63.8667 20.9561 63.5649 20.6924C63.2661 20.4258 63.1167 20.0889 63.1167 19.6816C63.1167 19.1865 63.3042 18.8027 63.6792 18.5303C64.0571 18.2549 64.5874 18.1172 65.27 18.1172H66.061V17.7437C66.061 17.4595 65.9761 17.2339 65.8062 17.0669C65.6362 16.897 65.3857 16.812 65.0547 16.812C64.7646 16.812 64.5215 16.8853 64.3252 17.0317C64.1289 17.1782 64.0308 17.3555 64.0308 17.5635H63.2134C63.2134 17.3262 63.2969 17.0977 63.4639 16.8779C63.6338 16.6553 63.8623 16.4795 64.1494 16.3506C64.4395 16.2217 64.7573 16.1572 65.103 16.1572C65.6509 16.1572 66.0801 16.2949 66.3906 16.5703C66.7012 16.8428 66.8623 17.2192 66.874 17.6997V19.8882C66.874 20.3247 66.9297 20.6719 67.041 20.9297V21H66.1885ZM64.8394 20.3804C65.0942 20.3804 65.3359 20.3145 65.5645 20.1826C65.793 20.0508 65.9585 19.8794 66.061 19.6685V18.6929H65.4238C64.4277 18.6929 63.9297 18.9844 63.9297 19.5674C63.9297 19.8223 64.0146 20.0215 64.1846 20.165C64.3545 20.3086 64.5728 20.3804 64.8394 20.3804ZM67.9551 18.583C67.9551 17.8418 68.1265 17.2529 68.4692 16.8164C68.812 16.377 69.2661 16.1572 69.8315 16.1572C70.4116 16.1572 70.8643 16.3623 71.1895 16.7725L71.229 16.2451H71.9717V20.8857C71.9717 21.501 71.7886 21.9858 71.4224 22.3403C71.0591 22.6948 70.5698 22.8721 69.9546 22.8721C69.6118 22.8721 69.2764 22.7988 68.9482 22.6523C68.6201 22.5059 68.3696 22.3052 68.1968 22.0503L68.6187 21.5625C68.9673 21.9932 69.3936 22.2085 69.8975 22.2085C70.293 22.2085 70.6006 22.0972 70.8203 21.8745C71.043 21.6519 71.1543 21.3384 71.1543 20.9341V20.5254C70.8291 20.9004 70.3853 21.0879 69.8228 21.0879C69.2661 21.0879 68.8149 20.8638 68.4692 20.4155C68.1265 19.9673 67.9551 19.3564 67.9551 18.583ZM68.7725 18.6753C68.7725 19.2114 68.8823 19.6333 69.1021 19.9409C69.3218 20.2456 69.6294 20.3979 70.0249 20.3979C70.5376 20.3979 70.9141 20.165 71.1543 19.6992V17.5283C70.9053 17.0742 70.5317 16.8472 70.0337 16.8472C69.6382 16.8472 69.3291 17.001 69.1064 17.3086C68.8838 17.6162 68.7725 18.0718 68.7725 18.6753ZM75.1753 21.0879C74.5308 21.0879 74.0063 20.877 73.6021 20.4551C73.1978 20.0303 72.9956 19.4634 72.9956 18.7544V18.605C72.9956 18.1333 73.085 17.7129 73.2637 17.3438C73.4453 16.9717 73.6973 16.6816 74.0195 16.4736C74.3447 16.2627 74.6963 16.1572 75.0742 16.1572C75.6924 16.1572 76.1729 16.3608 76.5156 16.7681C76.8584 17.1753 77.0298 17.7583 77.0298 18.5171V18.8555H73.8086C73.8203 19.3242 73.9565 19.7036 74.2173 19.9937C74.481 20.2808 74.8149 20.4243 75.2192 20.4243C75.5063 20.4243 75.7495 20.3657 75.9487 20.2485C76.1479 20.1313 76.3223 19.9761 76.4717 19.7827L76.9683 20.1694C76.5698 20.7817 75.9722 21.0879 75.1753 21.0879ZM75.0742 16.8252C74.7461 16.8252 74.4707 16.9453 74.248 17.1855C74.0254 17.4229 73.8877 17.7568 73.835 18.1875H76.2168V18.126C76.1934 17.7129 76.082 17.3936 75.8828 17.168C75.6836 16.9395 75.4141 16.8252 75.0742 16.8252ZM80.7432 19.7388C80.7432 19.519 80.6597 19.3491 80.4927 19.229C80.3286 19.106 80.04 19.0005 79.627 18.9126C79.2168 18.8247 78.8901 18.7192 78.647 18.5962C78.4067 18.4731 78.228 18.3267 78.1108 18.1567C77.9966 17.9868 77.9395 17.7847 77.9395 17.5503C77.9395 17.1606 78.1035 16.8311 78.4316 16.5615C78.7627 16.292 79.1846 16.1572 79.6973 16.1572C80.2363 16.1572 80.6729 16.2964 81.0068 16.5747C81.3438 16.853 81.5122 17.209 81.5122 17.6426H80.6948C80.6948 17.4199 80.5996 17.228 80.4092 17.0669C80.2217 16.9058 79.9844 16.8252 79.6973 16.8252C79.4014 16.8252 79.1699 16.8896 79.0029 17.0186C78.8359 17.1475 78.7524 17.3159 78.7524 17.5239C78.7524 17.7202 78.8301 17.8682 78.9854 17.9678C79.1406 18.0674 79.4204 18.1626 79.8247 18.2534C80.2319 18.3442 80.5615 18.4526 80.8135 18.5786C81.0654 18.7046 81.2515 18.8569 81.3716 19.0356C81.4946 19.2114 81.5562 19.4268 81.5562 19.6816C81.5562 20.1064 81.3862 20.4478 81.0464 20.7056C80.7065 20.9604 80.2656 21.0879 79.7236 21.0879C79.3428 21.0879 79.0059 21.0205 78.7129 20.8857C78.4199 20.751 78.1899 20.5635 78.0229 20.3232C77.8589 20.0801 77.7769 19.8179 77.7769 19.5366H78.5898C78.6045 19.8091 78.7129 20.0259 78.915 20.187C79.1201 20.3452 79.3896 20.4243 79.7236 20.4243C80.0312 20.4243 80.2773 20.3628 80.4619 20.2397C80.6494 20.1138 80.7432 19.9468 80.7432 19.7388Z" fill="black"/>
</svg>
