<svg width="88" height="20" viewBox="0 0 88 20" fill="none" xmlns="http://www.w3.org/2000/svg">
<rect width="88" height="20" fill="#ACABAB"/>
<path d="M2.79932 7.8252V12H1.39307V1.33594H5.32617C6.49316 1.33594 7.40625 1.63379 8.06543 2.22949C8.72949 2.8252 9.06152 3.61377 9.06152 4.59521C9.06152 5.63037 8.73682 6.42871 8.0874 6.99023C7.44287 7.54688 6.51758 7.8252 5.31152 7.8252H2.79932ZM2.79932 6.67529H5.32617C6.07812 6.67529 6.6543 6.49951 7.05469 6.14795C7.45508 5.7915 7.65527 5.27881 7.65527 4.60986C7.65527 3.9751 7.45508 3.46729 7.05469 3.08643C6.6543 2.70557 6.10498 2.50781 5.40674 2.49316H2.79932V6.67529ZM11.9985 5.03467C12.5991 4.29736 13.3804 3.92871 14.3423 3.92871C16.0171 3.92871 16.8618 4.87354 16.8765 6.76318V12H15.5215V6.75586C15.5166 6.18457 15.3848 5.76221 15.126 5.48877C14.8721 5.21533 14.4741 5.07861 13.9321 5.07861C13.4927 5.07861 13.1069 5.1958 12.7749 5.43018C12.4429 5.66455 12.1841 5.97217 11.9985 6.35303V12H10.6436V0.75H11.9985V5.03467ZM18.5464 7.96436C18.5464 7.18799 18.6978 6.48975 19.0005 5.86963C19.3081 5.24951 19.7329 4.771 20.2749 4.43408C20.8218 4.09717 21.4443 3.92871 22.1426 3.92871C23.2217 3.92871 24.0933 4.30225 24.7573 5.04932C25.4263 5.79639 25.7607 6.79004 25.7607 8.03027V8.12549C25.7607 8.89697 25.6118 9.59033 25.314 10.2056C25.021 10.8159 24.5986 11.292 24.0469 11.6338C23.5 11.9756 22.8701 12.1465 22.1572 12.1465C21.083 12.1465 20.2114 11.7729 19.5425 11.0259C18.8784 10.2788 18.5464 9.29004 18.5464 8.05957V7.96436ZM19.9087 8.12549C19.9087 9.00439 20.1113 9.70996 20.5166 10.2422C20.9268 10.7744 21.4736 11.0405 22.1572 11.0405C22.8457 11.0405 23.3926 10.772 23.7979 10.2349C24.2031 9.69287 24.4058 8.93604 24.4058 7.96436C24.4058 7.09521 24.1982 6.39209 23.7832 5.85498C23.373 5.31299 22.8262 5.04199 22.1426 5.04199C21.4736 5.04199 20.9341 5.30811 20.5239 5.84033C20.1138 6.37256 19.9087 7.13428 19.9087 8.12549ZM29.2983 2.15625V4.0752H30.7778V5.12256H29.2983V10.0371C29.2983 10.3545 29.3643 10.5938 29.4961 10.7549C29.6279 10.9111 29.8525 10.9893 30.1699 10.9893C30.3262 10.9893 30.541 10.96 30.8145 10.9014V12C30.458 12.0977 30.1113 12.1465 29.7744 12.1465C29.1689 12.1465 28.7124 11.9634 28.4048 11.5972C28.0972 11.231 27.9434 10.7109 27.9434 10.0371V5.12256H26.5005V4.0752H27.9434V2.15625H29.2983ZM31.8618 7.96436C31.8618 7.18799 32.0132 6.48975 32.3159 5.86963C32.6235 5.24951 33.0483 4.771 33.5903 4.43408C34.1372 4.09717 34.7598 3.92871 35.458 3.92871C36.5371 3.92871 37.4087 4.30225 38.0728 5.04932C38.7417 5.79639 39.0762 6.79004 39.0762 8.03027V8.12549C39.0762 8.89697 38.9272 9.59033 38.6294 10.2056C38.3364 10.8159 37.9141 11.292 37.3623 11.6338C36.8154 11.9756 36.1855 12.1465 35.4727 12.1465C34.3984 12.1465 33.5269 11.7729 32.8579 11.0259C32.1938 10.2788 31.8618 9.29004 31.8618 8.05957V7.96436ZM33.2241 8.12549C33.2241 9.00439 33.4268 9.70996 33.832 10.2422C34.2422 10.7744 34.7891 11.0405 35.4727 11.0405C36.1611 11.0405 36.708 10.772 37.1133 10.2349C37.5186 9.69287 37.7212 8.93604 37.7212 7.96436C37.7212 7.09521 37.5137 6.39209 37.0986 5.85498C36.6885 5.31299 36.1416 5.04199 35.458 5.04199C34.7891 5.04199 34.2495 5.30811 33.8394 5.84033C33.4292 6.37256 33.2241 7.13428 33.2241 8.12549ZM45.3896 9.89795C45.3896 9.53174 45.2505 9.24854 44.9722 9.04834C44.6987 8.84326 44.2178 8.66748 43.5293 8.521C42.8457 8.37451 42.3013 8.19873 41.896 7.99365C41.4956 7.78857 41.1978 7.54443 41.0024 7.26123C40.812 6.97803 40.7168 6.64111 40.7168 6.25049C40.7168 5.60107 40.9902 5.05176 41.5371 4.60254C42.0889 4.15332 42.792 3.92871 43.6465 3.92871C44.5449 3.92871 45.2725 4.16064 45.8291 4.62451C46.3906 5.08838 46.6714 5.68164 46.6714 6.4043H45.3091C45.3091 6.0332 45.1504 5.71338 44.833 5.44482C44.5205 5.17627 44.125 5.04199 43.6465 5.04199C43.1533 5.04199 42.7676 5.14941 42.4893 5.36426C42.2109 5.5791 42.0718 5.85986 42.0718 6.20654C42.0718 6.53369 42.2012 6.78027 42.46 6.94629C42.7188 7.1123 43.1851 7.271 43.8589 7.42236C44.5376 7.57373 45.0869 7.75439 45.5068 7.96436C45.9268 8.17432 46.2368 8.42822 46.437 8.72607C46.6421 9.01904 46.7446 9.37793 46.7446 9.80273C46.7446 10.5107 46.4614 11.0796 45.895 11.5093C45.3286 11.9341 44.5938 12.1465 43.6904 12.1465C43.0557 12.1465 42.4941 12.0342 42.0059 11.8096C41.5176 11.585 41.1343 11.2725 40.856 10.8721C40.5825 10.4668 40.4458 10.0298 40.4458 9.56104H41.8008C41.8252 10.0151 42.0059 10.3765 42.3428 10.645C42.6846 10.9087 43.1338 11.0405 43.6904 11.0405C44.2031 11.0405 44.6133 10.938 44.9209 10.7329C45.2334 10.5229 45.3896 10.2446 45.3896 9.89795ZM48.5391 11.2896C48.5391 11.0552 48.6074 10.8599 48.7441 10.7036C48.8857 10.5474 49.0957 10.4692 49.374 10.4692C49.6523 10.4692 49.8623 10.5474 50.0039 10.7036C50.1504 10.8599 50.2236 11.0552 50.2236 11.2896C50.2236 11.5142 50.1504 11.7021 50.0039 11.8535C49.8623 12.0049 49.6523 12.0806 49.374 12.0806C49.0957 12.0806 48.8857 12.0049 48.7441 11.8535C48.6074 11.7021 48.5391 11.5142 48.5391 11.2896ZM55.6436 11.0405C56.127 11.0405 56.5493 10.894 56.9106 10.6011C57.272 10.3081 57.4722 9.94189 57.5112 9.50244H58.793C58.7686 9.95654 58.6123 10.3887 58.3242 10.7988C58.0361 11.209 57.6504 11.5361 57.167 11.7803C56.6885 12.0244 56.1807 12.1465 55.6436 12.1465C54.5645 12.1465 53.7051 11.7876 53.0654 11.0698C52.4307 10.3472 52.1133 9.36084 52.1133 8.11084V7.88379C52.1133 7.1123 52.2549 6.42627 52.5381 5.82568C52.8213 5.2251 53.2266 4.75879 53.7539 4.42676C54.2861 4.09473 54.9136 3.92871 55.6362 3.92871C56.5249 3.92871 57.2622 4.19482 57.8481 4.72705C58.439 5.25928 58.7539 5.9502 58.793 6.7998H57.5112C57.4722 6.28711 57.2769 5.86719 56.9253 5.54004C56.5786 5.20801 56.1489 5.04199 55.6362 5.04199C54.9478 5.04199 54.4131 5.29102 54.0322 5.78906C53.6562 6.28223 53.4683 6.99756 53.4683 7.93506V8.19141C53.4683 9.10449 53.6562 9.80762 54.0322 10.3008C54.4082 10.7939 54.9453 11.0405 55.6436 11.0405ZM59.9575 7.96436C59.9575 7.18799 60.1089 6.48975 60.4116 5.86963C60.7192 5.24951 61.144 4.771 61.686 4.43408C62.2329 4.09717 62.8555 3.92871 63.5537 3.92871C64.6328 3.92871 65.5044 4.30225 66.1685 5.04932C66.8374 5.79639 67.1719 6.79004 67.1719 8.03027V8.12549C67.1719 8.89697 67.0229 9.59033 66.7251 10.2056C66.4321 10.8159 66.0098 11.292 65.458 11.6338C64.9111 11.9756 64.2812 12.1465 63.5684 12.1465C62.4941 12.1465 61.6226 11.7729 60.9536 11.0259C60.2896 10.2788 59.9575 9.29004 59.9575 8.05957V7.96436ZM61.3198 8.12549C61.3198 9.00439 61.5225 9.70996 61.9277 10.2422C62.3379 10.7744 62.8848 11.0405 63.5684 11.0405C64.2568 11.0405 64.8037 10.772 65.209 10.2349C65.6143 9.69287 65.8169 8.93604 65.8169 7.96436C65.8169 7.09521 65.6094 6.39209 65.1943 5.85498C64.7842 5.31299 64.2373 5.04199 63.5537 5.04199C62.8848 5.04199 62.3452 5.30811 61.9351 5.84033C61.5249 6.37256 61.3198 7.13428 61.3198 8.12549ZM70.1455 4.0752L70.1821 4.9541C70.7632 4.27051 71.5469 3.92871 72.5332 3.92871C73.6416 3.92871 74.396 4.35352 74.7964 5.20312C75.0601 4.82227 75.4019 4.51465 75.8218 4.28027C76.2466 4.0459 76.7471 3.92871 77.3232 3.92871C79.0615 3.92871 79.9453 4.84912 79.9746 6.68994V12H78.6196V6.77051C78.6196 6.2041 78.4902 5.78174 78.2314 5.50342C77.9727 5.22021 77.5381 5.07861 76.9277 5.07861C76.4248 5.07861 76.0073 5.22998 75.6753 5.53271C75.3433 5.83057 75.1504 6.2334 75.0967 6.74121V12H73.7344V6.80713C73.7344 5.65479 73.1704 5.07861 72.0425 5.07861C71.1538 5.07861 70.5459 5.45703 70.2188 6.21387V12H68.8638V4.0752H70.1455Z" fill="black"/>
<path d="M82.5709 7.83105H81.4284V11H80.962V7.83105H79.8219V7.44531H82.5709V7.83105ZM83.7037 7.44531L84.8659 10.3457L86.028 7.44531H86.6359V11H86.1671V9.61572L86.2111 8.12158L85.0441 11H84.6852L83.5206 8.12891L83.567 9.61572V11H83.0983V7.44531H83.7037Z" fill="black"/>
<path d="M23.4102 15.6753C23.4102 16.4019 23.2432 16.9863 22.9092 17.4287C22.5752 17.8682 22.127 18.0879 21.5645 18.0879C20.9639 18.0879 20.4995 17.8755 20.1714 17.4507L20.1318 18H19.3848V11.25H20.1978V13.7681C20.5259 13.3608 20.9785 13.1572 21.5557 13.1572C22.1328 13.1572 22.5854 13.3755 22.9136 13.812C23.2446 14.2485 23.4102 14.8462 23.4102 15.605V15.6753ZM22.5972 15.583C22.5972 15.0293 22.4902 14.6016 22.2764 14.2998C22.0625 13.998 21.7549 13.8472 21.3535 13.8472C20.8174 13.8472 20.4321 14.0962 20.1978 14.5942V16.6509C20.4468 17.1489 20.835 17.3979 21.3623 17.3979C21.752 17.3979 22.0552 17.2471 22.272 16.9453C22.4888 16.6436 22.5972 16.1895 22.5972 15.583ZM25.9414 16.8091L27.0488 13.2451H27.9189L26.0073 18.7339C25.7114 19.5249 25.2412 19.9204 24.5967 19.9204L24.4429 19.9072L24.1396 19.8501V19.1909L24.3594 19.2085C24.6348 19.2085 24.8486 19.1528 25.001 19.0415C25.1562 18.9302 25.2837 18.7266 25.3833 18.4307L25.5635 17.9473L23.8672 13.2451H24.7549L25.9414 16.8091ZM35.7324 17.1606C35.5156 17.4712 35.2124 17.7041 34.8228 17.8594C34.436 18.0117 33.9849 18.0879 33.4692 18.0879C32.9478 18.0879 32.4849 17.9663 32.0806 17.7231C31.6763 17.4771 31.3628 17.1284 31.1401 16.6772C30.9204 16.2261 30.8076 15.7031 30.8018 15.1084V14.5503C30.8018 13.5864 31.0259 12.8394 31.4741 12.3091C31.9253 11.7788 32.5581 11.5137 33.3726 11.5137C34.0405 11.5137 34.5781 11.6851 34.9854 12.0278C35.3926 12.3677 35.6416 12.8511 35.7324 13.478H34.8887C34.7305 12.6313 34.2266 12.208 33.377 12.208C32.8115 12.208 32.3823 12.4072 32.0894 12.8057C31.7993 13.2012 31.6528 13.7754 31.6499 14.5283V15.0513C31.6499 15.769 31.814 16.3403 32.1421 16.7651C32.4702 17.187 32.9141 17.3979 33.4736 17.3979C33.79 17.3979 34.0669 17.3628 34.3042 17.2925C34.5415 17.2222 34.7378 17.1035 34.8931 16.9365V15.4995H33.4121V14.814H35.7324V17.1606ZM38.9888 18.0879C38.3442 18.0879 37.8198 17.877 37.4155 17.4551C37.0112 17.0303 36.8091 16.4634 36.8091 15.7544V15.605C36.8091 15.1333 36.8984 14.7129 37.0771 14.3438C37.2588 13.9717 37.5107 13.6816 37.833 13.4736C38.1582 13.2627 38.5098 13.1572 38.8877 13.1572C39.5059 13.1572 39.9863 13.3608 40.3291 13.7681C40.6719 14.1753 40.8433 14.7583 40.8433 15.5171V15.8555H37.6221C37.6338 16.3242 37.77 16.7036 38.0308 16.9937C38.2944 17.2808 38.6284 17.4243 39.0327 17.4243C39.3198 17.4243 39.563 17.3657 39.7622 17.2485C39.9614 17.1313 40.1357 16.9761 40.2852 16.7827L40.7817 17.1694C40.3833 17.7817 39.7856 18.0879 38.9888 18.0879ZM38.8877 13.8252C38.5596 13.8252 38.2842 13.9453 38.0615 14.1855C37.8389 14.4229 37.7012 14.7568 37.6484 15.1875H40.0303V15.126C40.0068 14.7129 39.8955 14.3936 39.6963 14.168C39.4971 13.9395 39.2275 13.8252 38.8877 13.8252ZM42.8911 12.0938V13.2451H43.7788V13.8735H42.8911V16.8223C42.8911 17.0127 42.9307 17.1562 43.0098 17.2529C43.0889 17.3467 43.2236 17.3936 43.4141 17.3936C43.5078 17.3936 43.6367 17.376 43.8008 17.3408V18C43.5869 18.0586 43.3789 18.0879 43.1768 18.0879C42.8135 18.0879 42.5396 17.978 42.355 17.7583C42.1704 17.5386 42.0781 17.2266 42.0781 16.8223V13.8735H41.2124V13.2451H42.0781V12.0938H42.8911ZM45.8354 12.0938V13.2451H46.7231V13.8735H45.8354V16.8223C45.8354 17.0127 45.875 17.1562 45.9541 17.2529C46.0332 17.3467 46.168 17.3936 46.3584 17.3936C46.4521 17.3936 46.5811 17.376 46.7451 17.3408V18C46.5312 18.0586 46.3232 18.0879 46.1211 18.0879C45.7578 18.0879 45.4839 17.978 45.2993 17.7583C45.1147 17.5386 45.0225 17.2266 45.0225 16.8223V13.8735H44.1567V13.2451H45.0225V12.0938H45.8354ZM49.2324 16.8091L50.3398 13.2451H51.21L49.2983 18.7339C49.0024 19.5249 48.5322 19.9204 47.8877 19.9204L47.7339 19.9072L47.4307 19.8501V19.1909L47.6504 19.2085C47.9258 19.2085 48.1396 19.1528 48.292 19.0415C48.4473 18.9302 48.5747 18.7266 48.6743 18.4307L48.8545 17.9473L47.1582 13.2451H48.0459L49.2324 16.8091ZM55.0552 18H54.2422V13.2451H55.0552V18ZM54.1763 11.9839C54.1763 11.8521 54.2158 11.7407 54.2949 11.6499C54.377 11.5591 54.4971 11.5137 54.6553 11.5137C54.8135 11.5137 54.9336 11.5591 55.0156 11.6499C55.0977 11.7407 55.1387 11.8521 55.1387 11.9839C55.1387 12.1157 55.0977 12.2256 55.0156 12.3135C54.9336 12.4014 54.8135 12.4453 54.6553 12.4453C54.4971 12.4453 54.377 12.4014 54.2949 12.3135C54.2158 12.2256 54.1763 12.1157 54.1763 11.9839ZM57.125 13.2451L57.147 13.7725C57.4956 13.3623 57.9658 13.1572 58.5576 13.1572C59.2227 13.1572 59.6753 13.4121 59.9155 13.9219C60.0737 13.6934 60.2788 13.5088 60.5308 13.3682C60.7856 13.2275 61.0859 13.1572 61.4316 13.1572C62.4746 13.1572 63.0049 13.7095 63.0225 14.814V18H62.2095V14.8623C62.2095 14.5225 62.1318 14.269 61.9766 14.1021C61.8213 13.9321 61.5605 13.8472 61.1943 13.8472C60.8926 13.8472 60.6421 13.938 60.4429 14.1196C60.2437 14.2983 60.1279 14.54 60.0957 14.8447V18H59.2783V14.8843C59.2783 14.1929 58.9399 13.8472 58.2632 13.8472C57.73 13.8472 57.3652 14.0742 57.1689 14.5283V18H56.356V13.2451H57.125ZM67.1885 18C67.1416 17.9062 67.1035 17.7393 67.0742 17.499C66.6963 17.8916 66.2451 18.0879 65.7207 18.0879C65.252 18.0879 64.8667 17.9561 64.5649 17.6924C64.2661 17.4258 64.1167 17.0889 64.1167 16.6816C64.1167 16.1865 64.3042 15.8027 64.6792 15.5303C65.0571 15.2549 65.5874 15.1172 66.27 15.1172H67.061V14.7437C67.061 14.4595 66.9761 14.2339 66.8062 14.0669C66.6362 13.897 66.3857 13.812 66.0547 13.812C65.7646 13.812 65.5215 13.8853 65.3252 14.0317C65.1289 14.1782 65.0308 14.3555 65.0308 14.5635H64.2134C64.2134 14.3262 64.2969 14.0977 64.4639 13.8779C64.6338 13.6553 64.8623 13.4795 65.1494 13.3506C65.4395 13.2217 65.7573 13.1572 66.103 13.1572C66.6509 13.1572 67.0801 13.2949 67.3906 13.5703C67.7012 13.8428 67.8623 14.2192 67.874 14.6997V16.8882C67.874 17.3247 67.9297 17.6719 68.041 17.9297V18H67.1885ZM65.8394 17.3804C66.0942 17.3804 66.3359 17.3145 66.5645 17.1826C66.793 17.0508 66.9585 16.8794 67.061 16.6685V15.6929H66.4238C65.4277 15.6929 64.9297 15.9844 64.9297 16.5674C64.9297 16.8223 65.0146 17.0215 65.1846 17.165C65.3545 17.3086 65.5728 17.3804 65.8394 17.3804ZM68.9551 15.583C68.9551 14.8418 69.1265 14.2529 69.4692 13.8164C69.812 13.377 70.2661 13.1572 70.8315 13.1572C71.4116 13.1572 71.8643 13.3623 72.1895 13.7725L72.229 13.2451H72.9717V17.8857C72.9717 18.501 72.7886 18.9858 72.4224 19.3403C72.0591 19.6948 71.5698 19.8721 70.9546 19.8721C70.6118 19.8721 70.2764 19.7988 69.9482 19.6523C69.6201 19.5059 69.3696 19.3052 69.1968 19.0503L69.6187 18.5625C69.9673 18.9932 70.3936 19.2085 70.8975 19.2085C71.293 19.2085 71.6006 19.0972 71.8203 18.8745C72.043 18.6519 72.1543 18.3384 72.1543 17.9341V17.5254C71.8291 17.9004 71.3853 18.0879 70.8228 18.0879C70.2661 18.0879 69.8149 17.8638 69.4692 17.4155C69.1265 16.9673 68.9551 16.3564 68.9551 15.583ZM69.7725 15.6753C69.7725 16.2114 69.8823 16.6333 70.1021 16.9409C70.3218 17.2456 70.6294 17.3979 71.0249 17.3979C71.5376 17.3979 71.9141 17.165 72.1543 16.6992V14.5283C71.9053 14.0742 71.5317 13.8472 71.0337 13.8472C70.6382 13.8472 70.3291 14.001 70.1064 14.3086C69.8838 14.6162 69.7725 15.0718 69.7725 15.6753ZM76.1753 18.0879C75.5308 18.0879 75.0063 17.877 74.6021 17.4551C74.1978 17.0303 73.9956 16.4634 73.9956 15.7544V15.605C73.9956 15.1333 74.085 14.7129 74.2637 14.3438C74.4453 13.9717 74.6973 13.6816 75.0195 13.4736C75.3447 13.2627 75.6963 13.1572 76.0742 13.1572C76.6924 13.1572 77.1729 13.3608 77.5156 13.7681C77.8584 14.1753 78.0298 14.7583 78.0298 15.5171V15.8555H74.8086C74.8203 16.3242 74.9565 16.7036 75.2173 16.9937C75.481 17.2808 75.8149 17.4243 76.2192 17.4243C76.5063 17.4243 76.7495 17.3657 76.9487 17.2485C77.1479 17.1313 77.3223 16.9761 77.4717 16.7827L77.9683 17.1694C77.5698 17.7817 76.9722 18.0879 76.1753 18.0879ZM76.0742 13.8252C75.7461 13.8252 75.4707 13.9453 75.248 14.1855C75.0254 14.4229 74.8877 14.7568 74.835 15.1875H77.2168V15.126C77.1934 14.7129 77.082 14.3936 76.8828 14.168C76.6836 13.9395 76.4141 13.8252 76.0742 13.8252ZM81.7432 16.7388C81.7432 16.519 81.6597 16.3491 81.4927 16.229C81.3286 16.106 81.04 16.0005 80.627 15.9126C80.2168 15.8247 79.8901 15.7192 79.647 15.5962C79.4067 15.4731 79.228 15.3267 79.1108 15.1567C78.9966 14.9868 78.9395 14.7847 78.9395 14.5503C78.9395 14.1606 79.1035 13.8311 79.4316 13.5615C79.7627 13.292 80.1846 13.1572 80.6973 13.1572C81.2363 13.1572 81.6729 13.2964 82.0068 13.5747C82.3438 13.853 82.5122 14.209 82.5122 14.6426H81.6948C81.6948 14.4199 81.5996 14.228 81.4092 14.0669C81.2217 13.9058 80.9844 13.8252 80.6973 13.8252C80.4014 13.8252 80.1699 13.8896 80.0029 14.0186C79.8359 14.1475 79.7524 14.3159 79.7524 14.5239C79.7524 14.7202 79.8301 14.8682 79.9854 14.9678C80.1406 15.0674 80.4204 15.1626 80.8247 15.2534C81.2319 15.3442 81.5615 15.4526 81.8135 15.5786C82.0654 15.7046 82.2515 15.8569 82.3716 16.0356C82.4946 16.2114 82.5562 16.4268 82.5562 16.6816C82.5562 17.1064 82.3862 17.4478 82.0464 17.7056C81.7065 17.9604 81.2656 18.0879 80.7236 18.0879C80.3428 18.0879 80.0059 18.0205 79.7129 17.8857C79.4199 17.751 79.1899 17.5635 79.0229 17.3232C78.8589 17.0801 78.7769 16.8179 78.7769 16.5366H79.5898C79.6045 16.8091 79.7129 17.0259 79.915 17.187C80.1201 17.3452 80.3896 17.4243 80.7236 17.4243C81.0312 17.4243 81.2773 17.3628 81.4619 17.2397C81.6494 17.1138 81.7432 16.9468 81.7432 16.7388Z" fill="black"/>
</svg>
